<mxfile host="app.diagrams.net" modified="2021-06-22T10:31:40.539Z" agent="5.0 (X11; Linux x86_64) AppleWebKit/537.36 (KHTML, like Gecko) Chrome/91.0.4472.114 Safari/537.36" etag="K-0aMvGRqN5HKrZ7JQUa" version="14.8.0" type="github">
  <diagram id="R2lEEEUBdFMjLlhIrx00" name="Page-1">
    <mxGraphModel dx="2272" dy="801" grid="1" gridSize="10" guides="1" tooltips="1" connect="1" arrows="1" fold="1" page="1" pageScale="1" pageWidth="850" pageHeight="1100" math="0" shadow="0" extFonts="Permanent Marker^https://fonts.googleapis.com/css?family=Permanent+Marker">
      <root>
        <mxCell id="0" />
        <mxCell id="1" parent="0" />
        <mxCell id="F8if8LQHuTppJckvVnim-12" style="edgeStyle=orthogonalEdgeStyle;rounded=0;orthogonalLoop=1;jettySize=auto;html=1;exitX=0.013;exitY=0.617;exitDx=0;exitDy=0;entryX=0;entryY=0.5;entryDx=0;entryDy=0;exitPerimeter=0;" edge="1" parent="1" source="F8if8LQHuTppJckvVnim-1" target="F8if8LQHuTppJckvVnim-3">
          <mxGeometry relative="1" as="geometry">
            <Array as="points">
              <mxPoint y="117" />
              <mxPoint y="590" />
            </Array>
          </mxGeometry>
        </mxCell>
        <mxCell id="F8if8LQHuTppJckvVnim-1" value="２章：確率・統計の基礎" style="rounded=0;whiteSpace=wrap;html=1;" vertex="1" parent="1">
          <mxGeometry x="30" y="80" width="160" height="60" as="geometry" />
        </mxCell>
        <mxCell id="F8if8LQHuTppJckvVnim-3" value="付録A:ベイズ推定によるセンサデータの解析" style="rounded=0;whiteSpace=wrap;html=1;" vertex="1" parent="1">
          <mxGeometry x="20" y="560" width="270" height="60" as="geometry" />
        </mxCell>
        <mxCell id="F8if8LQHuTppJckvVnim-13" style="edgeStyle=orthogonalEdgeStyle;rounded=0;orthogonalLoop=1;jettySize=auto;html=1;exitX=0;exitY=0.5;exitDx=0;exitDy=0;entryX=0;entryY=0.5;entryDx=0;entryDy=0;" edge="1" parent="1" source="F8if8LQHuTppJckvVnim-4" target="F8if8LQHuTppJckvVnim-10">
          <mxGeometry relative="1" as="geometry" />
        </mxCell>
        <mxCell id="F8if8LQHuTppJckvVnim-14" style="edgeStyle=orthogonalEdgeStyle;rounded=0;orthogonalLoop=1;jettySize=auto;html=1;entryX=0.367;entryY=-0.083;entryDx=0;entryDy=0;entryPerimeter=0;" edge="1" parent="1" source="F8if8LQHuTppJckvVnim-4" target="F8if8LQHuTppJckvVnim-9">
          <mxGeometry relative="1" as="geometry" />
        </mxCell>
        <mxCell id="F8if8LQHuTppJckvVnim-15" style="edgeStyle=orthogonalEdgeStyle;rounded=0;orthogonalLoop=1;jettySize=auto;html=1;exitX=0.75;exitY=1;exitDx=0;exitDy=0;entryX=0.5;entryY=0;entryDx=0;entryDy=0;" edge="1" parent="1" source="F8if8LQHuTppJckvVnim-4" target="F8if8LQHuTppJckvVnim-8">
          <mxGeometry relative="1" as="geometry" />
        </mxCell>
        <mxCell id="F8if8LQHuTppJckvVnim-4" value="&lt;div style=&quot;text-align: left&quot;&gt;&lt;span&gt;５章：パーティクルフィルタいよる自己位置推定&lt;/span&gt;&lt;/div&gt;&lt;div style=&quot;text-align: left&quot;&gt;&lt;span&gt;６章：カルマンフィルタによる自己位置推定&lt;/span&gt;&lt;/div&gt;" style="rounded=0;whiteSpace=wrap;html=1;" vertex="1" parent="1">
          <mxGeometry x="60" y="210" width="390" height="60" as="geometry" />
        </mxCell>
        <mxCell id="F8if8LQHuTppJckvVnim-16" style="edgeStyle=orthogonalEdgeStyle;rounded=0;orthogonalLoop=1;jettySize=auto;html=1;" edge="1" parent="1" source="F8if8LQHuTppJckvVnim-5" target="F8if8LQHuTppJckvVnim-4">
          <mxGeometry relative="1" as="geometry" />
        </mxCell>
        <mxCell id="F8if8LQHuTppJckvVnim-17" style="edgeStyle=orthogonalEdgeStyle;rounded=0;orthogonalLoop=1;jettySize=auto;html=1;exitX=0.75;exitY=1;exitDx=0;exitDy=0;entryX=0.5;entryY=0;entryDx=0;entryDy=0;" edge="1" parent="1" source="F8if8LQHuTppJckvVnim-5" target="F8if8LQHuTppJckvVnim-6">
          <mxGeometry relative="1" as="geometry" />
        </mxCell>
        <mxCell id="F8if8LQHuTppJckvVnim-5" value="&lt;div style=&quot;text-align: left&quot;&gt;&lt;span&gt;３章：移動ロボットのモデル化&lt;/span&gt;&lt;/div&gt;&lt;div style=&quot;text-align: left&quot;&gt;&lt;span&gt;４章：不確かさのモデル化&lt;/span&gt;&lt;/div&gt;" style="rounded=0;whiteSpace=wrap;html=1;" vertex="1" parent="1">
          <mxGeometry x="360" y="80" width="320" height="60" as="geometry" />
        </mxCell>
        <mxCell id="F8if8LQHuTppJckvVnim-18" style="edgeStyle=orthogonalEdgeStyle;rounded=0;orthogonalLoop=1;jettySize=auto;html=1;exitX=0.75;exitY=1;exitDx=0;exitDy=0;entryX=0.547;entryY=0.033;entryDx=0;entryDy=0;entryPerimeter=0;" edge="1" parent="1" source="F8if8LQHuTppJckvVnim-6" target="F8if8LQHuTppJckvVnim-7">
          <mxGeometry relative="1" as="geometry" />
        </mxCell>
        <mxCell id="F8if8LQHuTppJckvVnim-19" style="edgeStyle=orthogonalEdgeStyle;rounded=0;orthogonalLoop=1;jettySize=auto;html=1;entryX=0.314;entryY=-0.033;entryDx=0;entryDy=0;entryPerimeter=0;exitX=0.359;exitY=1.033;exitDx=0;exitDy=0;exitPerimeter=0;" edge="1" parent="1" source="F8if8LQHuTppJckvVnim-6" target="F8if8LQHuTppJckvVnim-11">
          <mxGeometry relative="1" as="geometry" />
        </mxCell>
        <mxCell id="F8if8LQHuTppJckvVnim-6" value="1０章：マルコフ決定過程と動的計画法" style="rounded=0;whiteSpace=wrap;html=1;" vertex="1" parent="1">
          <mxGeometry x="510" y="220" width="270" height="60" as="geometry" />
        </mxCell>
        <mxCell id="F8if8LQHuTppJckvVnim-7" value="1１章：強化学習" style="rounded=0;whiteSpace=wrap;html=1;" vertex="1" parent="1">
          <mxGeometry x="620" y="340" width="170" height="60" as="geometry" />
        </mxCell>
        <mxCell id="F8if8LQHuTppJckvVnim-20" style="edgeStyle=orthogonalEdgeStyle;rounded=0;orthogonalLoop=1;jettySize=auto;html=1;exitX=0.75;exitY=1;exitDx=0;exitDy=0;entryX=0.182;entryY=-0.017;entryDx=0;entryDy=0;entryPerimeter=0;" edge="1" parent="1" source="F8if8LQHuTppJckvVnim-8" target="F8if8LQHuTppJckvVnim-11">
          <mxGeometry relative="1" as="geometry" />
        </mxCell>
        <mxCell id="F8if8LQHuTppJckvVnim-8" value="７章：自己位置推定の諸問題" style="rounded=0;whiteSpace=wrap;html=1;" vertex="1" parent="1">
          <mxGeometry x="320" y="340" width="270" height="60" as="geometry" />
        </mxCell>
        <mxCell id="F8if8LQHuTppJckvVnim-9" value="８章：パーティクルフィルタによるSLAM" style="rounded=0;whiteSpace=wrap;html=1;" vertex="1" parent="1">
          <mxGeometry x="90" y="410" width="300" height="60" as="geometry" />
        </mxCell>
        <mxCell id="F8if8LQHuTppJckvVnim-10" value="9章：グラフ表現によるSLAM" style="rounded=0;whiteSpace=wrap;html=1;" vertex="1" parent="1">
          <mxGeometry x="90" y="480" width="290" height="60" as="geometry" />
        </mxCell>
        <mxCell id="F8if8LQHuTppJckvVnim-11" value="１２章：部分観測マルコフ決定過程" style="rounded=0;whiteSpace=wrap;html=1;" vertex="1" parent="1">
          <mxGeometry x="520" y="490" width="280" height="60" as="geometry" />
        </mxCell>
      </root>
    </mxGraphModel>
  </diagram>
</mxfile>
